# xmcd
#
# Track frame offsets:
#	150
#	17979
#	26273
#	43749
#	49592
#	68023
#	77766
#	85135
#	93078
#	116616
#	129468
#	138588
# Disc length: 1996 seconds
# Revision: 1
# Processed by: cddbd v1.5.2PL0 Copyright (c) Steve Scherf et al.
#
# Submitted via: libkcddb 0.31
#
DISCID=9307ca0c
DTITLE=Jiri Kralik and Rowdy Rascals - Moving On
DYEAR=2004
DGENRE=Bluegrass
TTITLE0=Fiddle Medley
TTITLE1=Ida Red
TTITLE2=Old-Time Medley
TTITLE3=Cricket on the Hearth
TTITLE4=Toy Heart
TTITLE5=Sweet Jany Lee
TTITLE6=Silver Dew on the Bluegrass Tonight
TTITLE7=Black Eyed Suzie
TTITLE8=All Of Me
TTITLE9=Avalon
TTITLE10=Little Liza Jane
TTITLE11=Take Me Back To Tulsa
EXTD=
EXTT0=
EXTT1=
EXTT2=
EXTT3=
EXTT4=
EXTT5=
EXTT6=
EXTT7=
EXTT8=
EXTT9=
EXTT10=
EXTT11=
PLAYORDER=
